<svg class="gear-icon" xmlns="http://www.w3.org/2000/svg" viewBox="0 0 20 20"><path d="M20 11.2V8.8h-2.6c-.2-1.2-.6-2.3-1.3-3.3l1.8-1.8-1.6-1.6-1.8 1.8c-1-.7-2.1-1.2-3.3-1.4V0H8.8v2.5c-1.2.2-2.3.7-3.3 1.4L3.7 2.1 2.1 3.7l1.8 1.8c-.7 1-1.2 2.1-1.3 3.3H0v2.3h2.6c.2 1.2.7 2.3 1.4 3.2l-1.9 1.9 1.6 1.6L5.6 16c.9.7 2 1.1 3.2 1.3V20h2.3v-2.7c1.2-.2 2.3-.6 3.2-1.3l1.9 1.9 1.6-1.6-1.8-1.9c.7-.9 1.2-2 1.4-3.2H20zm-4.8-1.3c0 2.9-2.3 5.2-5.2 5.2s-5.2-2.3-5.2-5.2C4.8 7 7.1 4.7 10 4.7s5.2 2.4 5.2 5.2z"/></svg>
