<svg version="1.1" class="Olin-Quotes-logo" xmlns="http://www.w3.org/2000/svg" x="0" y="0" viewBox="0 0 96.6 59.6" xml:space="preserve"><g transform="matrix(1.09234 0 0 1.09234 2.047 22.63)"><g transform="translate(-36 -62)"><g transform="translate(0 -1.085)"><g transform="translate(33.198 52.025) scale(1.06384)"><path d="M32.4 21.5c4.2 6.1-8.5 19.4-14.3 20.5 24.4 2.2 39.7-15.3 14.3-20.5z"/><path d="M14 41.6c-3.9-5.3 7.5-18.7 14.4-20.5C3.5 19.6-11.3 36.4 14 41.6z"/></g></g></g></g><path d="M96.6 24.2c0 2.7-2.2 4.9-4.9 4.9H49.8c-2.7 0-4.9-2.2-4.9-4.9V4.9C45 2.2 47.2 0 49.8 0h41.9c2.7 0 4.9 2.2 4.9 4.9v19.3z"/><path d="M69.8 29l-9.4 8.8L78.2 29z"/></svg>